<svg width="85" height="93" viewBox="0 0 85 93" fill="none" xmlns="http://www.w3.org/2000/svg">
<path d="M4.52671 8.19186C4.52671 22.4478 7.52576 32.0126 7.52576 43.4566C7.52576 46.2283 7.38843 48.896 7.17255 51.5207M4.52671 8.19186C4.52671 6.69124 6.32615 3.38985 13.5239 2.18935C19.5943 1.17688 39.9998 4.26312 56.0106 10.5263M4.52671 8.19186L3.52702 17.3814C3.52701 20.7578 4.52672 27.554 4.52672 28.6361C4.52671 30.1368 5.80737 41.0561 6.52608 44.3927C7.17255 47.394 7.24598 50.5846 7.17255 51.5207M56.0106 10.5263C63.73 13.546 74.4266 20.6805 78.0038 25.0739C85.4706 34.2445 83.1919 47.3541 80.0031 57.7126M56.0106 10.5263C58.01 12.2492 65.7076 16.1452 70.5061 22.4478C71.363 23.5733 72.5055 25.0739 76.5042 31.0764C79.0735 34.9332 79.9864 39.3419 80.0031 44.9572C80.0128 48.1887 81.2919 52.9892 80.0031 57.7126M80.0031 57.7126C79.435 59.5581 78.5581 63.8352 78.0038 65.2157C76.171 71.5934 64.7079 82.4729 49.5126 85.4742C45.7064 86.226 41.619 87.4654 37.5162 88.2861M80.0031 57.7126L78.7634 62.5896C78.7634 62.5896 78.9965 66.9888 75.5045 71.9685C70.5061 79.0965 63.9121 81.4195 62.0087 82.8481C61.5089 83.2232 56.0106 85.4742 49.5126 86.2245C44.3143 86.8247 39.349 88.2165 37.5162 88.2861M53.0114 62.0251C57.51 55.6475 56.0106 48.3336 56.0106 43.4566C56.0106 38.5796 54.5111 32.9522 44.0144 25.8242C35.617 20.1218 31.185 23.4482 30.0187 25.8242C30.4171 36.09 30.8154 54.8939 30.4546 63.1506M53.0114 62.0251C49.4125 67.1272 35.8502 67.7167 30.0187 67.0915C30.2216 66.6723 30.3628 65.2535 30.4546 63.1506M53.0114 62.0251C52.6781 62.4622 52.4621 63.9745 47.5131 66.527C41.3268 69.7176 31.5181 68.7779 30.0187 68.0276C28.6879 67.3617 30.894 62.3265 30.5184 59.399M37.5162 88.2861C25.0878 90.7722 13.0239 91.6625 7.18277 87.934M37.5162 88.2861C37.5162 88.2861 35.7751 88.7849 32.0179 89.4116C27.5194 90.1619 22.5274 90.5577 17.0226 90.9122C10.5364 91.3299 8.5253 90.1619 7.52562 89.4116C5.5307 87.9143 4.69325 87.3624 4.52669 86.4103M7.17255 51.5207C6.37957 61.1617 4.52671 70.2224 4.52671 81.7226C4.52671 84.5402 5.49059 86.5508 7.18277 87.934M6.3778 43.6424C7.02577 47.394 4.72665 56.6215 3.52702 61.2748C2.02749 67.0915 2.26485 74.014 2.02749 77.4066C1.79897 80.6727 3.02702 84.9097 4.52669 86.4103M4.52669 86.4103C8.40228 90.2884 6.99501 88.2199 7.18277 87.934M30.4546 63.1506C30.3093 64.2462 29.5187 67.2773 35.017 67.6525M25.0203 21.6975C22.0212 26.9497 26.02 50.5846 26.02 50.5846C26.02 65.2157 22.0212 66.7163 22.0212 70.843C22.0212 74.9698 33.0178 73.8443 41.0153 72.7188C50.7425 71.3499 54.5111 67.4666 57.0103 62.5896C59.5095 57.7126 61.822 45.0786 59.0097 36.7038C56.9196 30.4794 49.6989 17.6629 34.5173 19.0714C26.9667 19.7719 26.02 21.3223 25.0203 21.6975Z" stroke="#05F0FF" stroke-width="4" stroke-linejoin="round"/>
</svg>
